<svg width="110" height="100" viewBox="0 0 110 100" fill="none" xmlns="http://www.w3.org/2000/svg">
<rect x="10" y="30" width="10" height="40" fill="#F06767"/>
<rect x="50" y="30" width="10" height="40" fill="#F06767"/>
<rect x="30" y="10" width="10" height="40" fill="#F06767"/>
<rect x="30" y="60" width="10" height="40" fill="#F06767"/>
<rect x="70" y="10" width="10" height="40" fill="#F06767"/>
<rect x="70" y="60" width="10" height="40" fill="#F06767"/>
<rect x="90" y="30" width="10" height="40" fill="#F06767"/>
<circle cx="15" cy="25" r="5" fill="#F06767"/>
<circle cx="15" cy="75" r="5" fill="#F06767" fill-opacity="0.79"/>
<circle cx="75" cy="55" r="5" fill="#F06767" fill-opacity="0.8"/>
<circle cx="55" cy="25" r="5" fill="#F06767"/>
<circle cx="55" cy="75" r="5" fill="#F06767" fill-opacity="0.8"/>
<circle cx="35" cy="55" r="5" fill="#F06767" fill-opacity="0.8"/>
<circle cx="35" cy="5" r="5" fill="#F06767"/>
<circle cx="75" cy="5" r="5" fill="#F06767"/>
<circle cx="95" cy="25" r="5" fill="#F06767"/>
<circle cx="95" cy="75" r="5" fill="#F06767" fill-opacity="0.8"/>
</svg>
